<svg width="615" height="50" viewBox="0 0 615 50" fill="none" xmlns="http://www.w3.org/2000/svg">
<path d="M0.634212 5.97327L6.40771 11.7468L12.1812 5.97327L6.40771 0.199764L0.634212 5.97327ZM130.952 5.97327L131.659 5.26616L131.366 4.97327H130.952V5.97327ZM173.052 48.0727L172.345 48.7799L172.637 49.0727H173.052V48.0727ZM478.273 48.0727V49.0727H478.85L479.139 48.5727L478.273 48.0727ZM502.579 5.97327V4.97327H502.002L501.713 5.47327L502.579 5.97327ZM6.40771 5.97327V6.97327H130.952V5.97327V4.97327H6.40771V5.97327ZM130.952 5.97327L130.245 6.68037L172.345 48.7799L173.052 48.0727L173.759 47.3656L131.659 5.26616L130.952 5.97327ZM173.052 48.0727V49.0727H478.273V48.0727V47.0727H173.052V48.0727ZM478.273 48.0727L479.139 48.5727L503.445 6.47327L502.579 5.97327L501.713 5.47327L477.407 47.5727L478.273 48.0727ZM502.579 5.97327V6.97327H615.096V5.97327V4.97327H502.579V5.97327Z" fill="#2AFFD4"/>
</svg>
