<svg width="175" height="135" viewBox="0 0 175 135" fill="none" xmlns="http://www.w3.org/2000/svg">
<g filter="url(#filter0_dd_963_1065)">
<path d="M83.8125 92.5C78.8125 99 70.6667 102.229 59.375 102.188C48.125 102.146 40.7292 101.75 37.1875 101H37.625L32.5625 99.875L31.4375 99.625L31.6875 87.3125H34.8125C35.8542 95.3542 43.375 99.0833 57.375 98.5C71.4167 97.875 78.625 93.3542 79 84.9375C79.0417 83.8125 78.9583 82.7292 78.75 81.6875C78.5833 81.3125 78.4167 80.9167 78.25 80.5C78.0833 80 77.875 79.5 77.625 79C77.3333 78.5 77.0417 78.0417 76.75 77.625L76.625 77.5C76 76.6667 75.2708 75.9375 74.4375 75.3125C71.3542 72.9375 66.5833 70.8958 60.125 69.1875H61.3125C59.5625 68.6042 57.6875 68.0417 55.6875 67.5C46.3542 65.0833 39.5208 62.2917 35.1875 59.125C30.8125 55.9583 29.1042 49.8125 30.0625 40.6875C30.2708 38.3542 31.1875 36.2083 32.8125 34.25C37.8125 27.9167 45.7708 24.75 56.6875 24.75H56.75V24.6875C65.0833 24.6458 71.125 25.0208 74.875 25.8125H74.4375L79.5 26.9375L80.625 27.1875L80.375 39.4375H77.25C76.2083 31.4375 69.3958 27.6042 56.8125 27.9375V27.875C55.3542 27.9167 53.9375 28 52.5625 28.125C42.9792 28.9167 37.9792 33.3958 37.5625 41.5625C37.5208 42.6875 37.625 43.75 37.875 44.75C38.0417 45.0833 38.2083 45.4792 38.375 45.9375C38.5417 46.3958 38.75 46.8958 39 47.4375C39.2917 47.8125 39.5833 48.2292 39.875 48.6875L40 48.8125C40.5833 49.6458 41.3125 50.375 42.1875 51C45.5625 53.5417 50.9792 55.6667 58.4375 57.375L59.125 57.5C70.4583 60.1667 77.75 62.9792 81 65.9375C82.625 67.3958 83.9167 69 84.875 70.75H84.6875C86.6458 74.375 87.2708 79.4167 86.5625 85.875C86.3542 88.25 85.4375 90.4583 83.8125 92.5ZM43.0625 28H42.75V28.375H43.0625V28ZM41.5 28H40.9375V28.375H41.5V28ZM40.75 28H40.5625V28.6875H40.75V28ZM37.5625 29.0625V29.8125H37.375V29.0625H37.5625ZM39.8125 30.5625H39.5V31.25H39.8125V30.5625ZM40.75 30.875H40.4375V31.25H40.75V30.875ZM39.125 31.6875H39V32.375H39.125V31.6875ZM39.75 32.125C39.4583 32.125 39.3125 32.3333 39.3125 32.75H39.75V32.125ZM36.25 33.875H35.875V34.9375H36.25V33.875ZM35.125 34.25C35 34.25 34.8333 34.3542 34.625 34.5625C34.5417 34.5625 34.2917 34.4583 33.875 34.25C33.875 34.75 33.8125 35.2292 33.6875 35.6875H34.125L34.9375 35.3125C34.9375 35.5625 35 35.6875 35.125 35.6875V34.25ZM38 35.6875H37.875V36.4375H38V35.6875ZM33.1875 37.5C32.9792 37.5 32.6667 37.1458 32.25 36.4375V37.5C32.5417 37.5 32.7917 37.625 33 37.875H33.1875V37.5ZM37.6875 38.25C37.4375 38.25 37.3125 38.5 37.3125 39H37.6875V38.25ZM32.8125 39C32.8125 38.5833 32.6875 38.3333 32.4375 38.25H32.0625C32.0625 38.75 32.1875 39 32.4375 39H32.8125ZM34.125 38.625H33.875L33.5 39L33.1875 38.625L33 39.3125C33.2917 40.2708 33.5208 40.75 33.6875 40.75C33.6875 40.5417 33.625 40.2083 33.5 39.75C33.5 39.25 33.7083 39 34.125 39V38.625ZM37.3125 41.1875H36.9375V41.9375H37.3125V41.1875ZM36.5625 41.5625H36.4375V42.3125H36.5625V41.5625ZM33.6875 41.5625H33.1875V41.9375H33.6875V41.5625ZM36.0625 41.9375L35.6875 42.3125V43H35.875C35.875 42.75 35.9375 42.3958 36.0625 41.9375ZM33.875 42.625H33.6875V43.3125H33.875V42.625ZM36.75 43.75C36.75 43.2917 36.6458 43.0417 36.4375 43C36.1875 43 36.0625 43.25 36.0625 43.75H36.75ZM34.1875 44.5C33.9792 44.7083 33.8125 44.8125 33.6875 44.8125V45.1875H34.1875V44.5ZM37.6875 46.6875C37.4375 46.6875 37.3125 46.9375 37.3125 47.4375H37.6875V46.6875ZM42.1875 48.1875H41.875V48.875C42.0417 48.875 42.1458 48.6458 42.1875 48.1875ZM39.75 48.1875H39.3125V48.4375H39.75V48.1875ZM38.4375 48.4375H38.0625V49.25C38.2292 49.25 38.3542 48.9792 38.4375 48.4375ZM40.9375 50.6875C40.6875 50.6875 40.4583 50.5417 40.25 50.25L40.0625 51.0625C40.3958 51.0625 40.5625 51.3333 40.5625 51.875C40.7708 51.875 40.8958 51.6042 40.9375 51.0625V50.6875ZM37.875 50.25H37.6875V51.0625H37.875V50.25ZM42.9375 50.6875H42.5625V51.0625H42.9375V50.6875ZM39.5 50.6875H39.3125C39.1042 50.6875 39 50.9583 39 51.5H39.5V50.6875ZM41.5 51.875C41.5 51.3333 41.375 51.0625 41.125 51.0625V52.125H41.5V51.875ZM42.375 55.875H42.0625V56.125H42.375V55.875ZM41.6875 57.25H41.5C41.25 57.25 41.125 57.5 41.125 58H41.3125C41.5208 58 41.6458 57.75 41.6875 57.25ZM37 33.4375H36.5625L36.5 33.9375C36.8333 33.9375 37 33.7708 37 33.4375ZM36.5625 37.375C36.4792 37.375 36.1875 37.5 35.6875 37.75V38.25C35.9375 38.0833 36.25 37.9583 36.625 37.875L36.5625 37.375ZM34.25 38.375L34.0625 38.4375C34.1042 38.8125 34.0417 39.1667 33.875 39.5L35.0625 39.3125L35 39.0625C34.5417 39.1042 34.2917 38.875 34.25 38.375ZM32.6875 39.3125H32.4375L32.5 39.8125H32.6875V39.3125ZM32.0625 40.6875H31.875L31.9375 41.25H32.0625V40.6875ZM31.6875 41.75C31.6458 41.5417 31.4792 41.3958 31.1875 41.3125L31.25 41.875L31.6875 41.75ZM37.125 44.9375L36.875 45C36.9167 45.375 36.7708 45.5625 36.4375 45.5625V45.8125H36.75L37.1875 45.4375L37.125 44.9375ZM36.9375 47.3125C36.6458 47.3542 36.5 47.5208 36.5 47.8125L37.375 48.375L37.5 47.375L36.9375 47.3125ZM37.6875 47.75C37.3958 47.7917 37.25 48 37.25 48.375L37.75 48.3125L37.6875 47.75ZM36.1875 47.75H36.0625L36 48.5H36.125L36.1875 47.75ZM42.0625 49.0625L41.375 49.125L41.4375 49.9375C41.8542 49.5625 42.0625 49.2708 42.0625 49.0625ZM42.8125 51.9375H42.3125L42.375 52.3125H42.8125V51.9375ZM36.875 52.125H36.625V52.75H36.875V52.125ZM34.125 53.8125C33.9583 53.8125 33.7292 53.7083 33.4375 53.5L33.375 54.3125C33.7083 54.1875 33.9583 54.125 34.125 54.125V53.8125ZM42.9375 54.1875H42.6875L42.75 55L43.25 54.9375C43.0417 54.5625 42.9375 54.3125 42.9375 54.1875ZM42.8125 55.5L42.375 55.8125C42.375 56.1458 42.5208 56.3125 42.8125 56.3125V55.5ZM42 57.1875H41.5V57.4375C41.9583 57.4375 42.2083 57.625 42.25 58L42.75 57.875L42.6875 57.6875C42.2292 57.7708 42 57.6042 42 57.1875ZM38.1875 92.0625H39V91.625H38.1875V92.0625ZM37.6875 92.0625H37.9375V91.25H37.6875V92.0625ZM36.125 89.4375H36.625V88.75H36.125V89.4375ZM34.5 96.3125V96.75H34.875V96.3125H34.5ZM35.3125 94.5V94.75H36.125V94.5H35.3125ZM36.5625 94.875C36.0625 94.875 35.8125 95.0625 35.8125 95.4375H36.5625V94.875ZM37.8125 97.6875V98.0625H39.0625V97.6875H37.8125ZM38.6875 96.125C38.3958 96.4167 38.25 96.625 38.25 96.75H39.9375C39.9375 96.625 39.7917 96.5625 39.5 96.5625L39.9375 95.4375V94.875C39.4375 95.0833 38.875 95.1875 38.25 95.1875C38.5417 95.6875 38.6875 96 38.6875 96.125ZM39.9375 100.188V100.312H40.75V100.188H39.9375ZM43.6875 99.5C43.1042 99.5 42.8125 99.6458 42.8125 99.9375H43.6875V99.5ZM46.1875 99V99.5H47V99H46.1875ZM46.625 98.375V98.5625H47.4375V98.375H46.625ZM48.25 98.375C48.3333 98.625 48.625 98.75 49.125 98.75V97.9375C48.5417 97.9375 48.25 98.0833 48.25 98.375ZM53.25 99.5C52.7083 99.5 52.4375 99.6458 52.4375 99.9375H53.25V99.5ZM54.125 98.0625V98.5625C54.6667 98.4792 54.9375 98.3125 54.9375 98.0625H54.125ZM57.0625 99V99.5H57.375V99H57.0625ZM62.875 98.375V98.75H63.25V98.375H62.875ZM42.25 97.4375C41.9583 98.0625 41.8125 98.4375 41.8125 98.5625L42.4375 98.625C42.4792 98.1667 42.6042 97.7708 42.8125 97.4375H42.25ZM50.5 98.9375L50.4375 99.25L51 99.3125L51.4375 98.75V98.375H51.125C51.125 98.7917 50.9167 98.9792 50.5 98.9375ZM55.1875 97.5L55.125 98.375C55.4167 98.375 55.75 98.125 56.125 97.625L55.1875 97.5ZM58.4375 98.6875V99.3125H58.8125V98.75L58.4375 98.6875ZM60.9375 99.1875V99.5C61.1042 99.5 61.3958 99.625 61.8125 99.875L61.875 99.25L60.9375 99.1875ZM62.8125 98.75L62.5 99.3125H63.375C63.375 98.9792 63.1875 98.7917 62.8125 98.75ZM64.375 97.6875V98.25C64.8333 98.2917 65.0417 98.6042 65 99.1875L65.25 99.25L65.3125 98.625C64.9375 98.5833 64.75 98.2708 64.75 97.6875H64.375ZM68.5625 67.6875C68.5625 67.6042 68.6042 67.5417 68.6875 67.5H68.875C69 67.5417 69.0833 67.6042 69.125 67.6875C69.125 67.7292 69.0208 67.7917 68.8125 67.875H68.75C68.625 67.9167 68.5625 67.875 68.5625 67.75V67.6875ZM70.75 62.375L69.6875 62.75L69.75 63L70.875 62.625L70.75 62.375ZM68.75 63.5625L68.25 63.75L69.0625 64.125C69.1458 64.7083 68.8958 65.0833 68.3125 65.25L68.375 65.4375L69.1875 65.125L69.0625 64.75C69.4375 64.625 69.8125 64.5833 70.1875 64.625L70.5 64.5625L70.375 64.25C69.9583 64.4583 69.4167 64.2292 68.75 63.5625ZM73.25 63.125L71.9375 62.8125L72 63.125C72.5417 63.5833 72.9583 63.7708 73.25 63.6875C73.2083 63.5625 73.2083 63.375 73.25 63.125ZM73.25 62.375L73 62.5L73.1875 62.875L73.4375 62.75L73.25 62.375ZM69.75 64.9375C69.375 65.1458 69.25 65.3333 69.375 65.5L69.625 65.4375C70 65.3125 70.125 65.125 70 64.875L69.75 64.9375ZM71.4375 64.5625L70.9375 64.8125L71 65L71.5625 64.75L71.4375 64.5625ZM69.9375 68.125L69.1875 68.375L69.3125 68.75L70.125 68.5L69.9375 68.125ZM73.5625 67.6875L73 67.875C73.1667 68.25 73.0833 68.5 72.75 68.625C73 68.7917 73.1667 68.9375 73.25 69.0625L73.75 68.875L73.375 68.625L73.625 67.875L73.5625 67.6875ZM76 66.8125L75.4375 67L75.5 67.1875L76.0625 67L76 66.8125ZM71.25 69.5625L71 69.6875L71.4375 70C71.3542 70.25 71.3542 70.4375 71.4375 70.5625C71.6875 70.4792 71.8333 70.1458 71.875 69.5625H71.25ZM74.9375 69.3125C74.5625 69.4792 74.4583 69.6667 74.625 69.875L74.75 70.25C75.3333 70.0833 75.8125 70 76.1875 70L75.875 69.4375C75.5417 69.5625 75.3125 69.5 75.1875 69.25L74.9375 69.3125ZM79 73.5625L78.8125 73.625C79.1458 73.9167 79.5417 74.0208 80 73.9375C80.2083 73.7292 80.375 73.6042 80.5 73.5625L80.625 73.9375C80.125 74.1042 79.9167 74.3333 80 74.625C80.2917 74.5417 80.4792 74.5833 80.5625 74.75L80.5 75.0625C80.9167 74.9375 81.2708 74.875 81.5625 74.875C81.5625 74.75 81.625 74.6667 81.75 74.625L81.1875 74L81.125 73.875C81.8333 73.625 82.125 73.3958 82 73.1875C81.875 73.2292 81.7917 73.2083 81.75 73.125L81.0625 73.75L80.75 73.5625L80.9375 73.4375C80.6875 73.2708 80.5417 73.1667 80.5 73.125H80.3125L79.875 73.625L79 73.5625ZM78.6875 74.4375H78.1875L78.125 74.8125L78.1875 74.875H78.4375C78.6875 74.75 78.7708 74.6042 78.6875 74.4375ZM83.125 73.5L82.625 73.9375C82.5833 73.8542 82.5 73.8542 82.375 73.9375L82.25 74.25L82.3125 74.4375L82.5625 74.3125C83.1042 73.8958 83.375 73.5833 83.375 73.375L83.125 73.5ZM84.125 73.5625L83.9375 73.625C84.1042 73.9583 83.9375 74.25 83.4375 74.5L83.25 74.875C83.625 74.75 84.0625 74.7917 84.5625 75L84.1875 74.125L84.5625 74C84.3125 73.8333 84.1667 73.6875 84.125 73.5625ZM78.3125 76.1875L78.125 76.25C78.2083 76.4583 78.375 76.5 78.625 76.375L78.875 76.3125C78.7917 76.1458 78.6042 76.1042 78.3125 76.1875ZM79.375 75.8125C79.0833 75.9375 78.9792 76.0833 79.0625 76.25C79.2292 76.2083 79.4583 76.1875 79.75 76.1875L79.5625 75.75L79.375 75.8125ZM78.5 76.625L78.0625 76.75L78.1875 76.9375L78.625 76.75L78.5 76.625ZM82.3125 75.375L82.125 75.4375L82.3125 75.875L82.5 75.8125L82.3125 75.375ZM80.125 76.375L79.6875 76.5625L79.875 76.75C80.125 76.7083 80.2083 76.5833 80.125 76.375ZM81.125 76C80.875 76.125 80.7917 76.25 80.875 76.375L80.9375 76.5625L81.8125 76.25L81.5625 75.8125L81.125 76ZM80.125 76.9375H79.875L80.3125 77.8125L80.75 77.625L80.625 76.875L80.125 76.9375ZM78.5 77.625L78.0625 77.75L78.1875 77.9375L78.625 77.75L78.5 77.625ZM83.25 75.875C83.0417 75.9583 82.875 76.25 82.75 76.75C83.375 76.7083 83.7083 76.7708 83.75 76.9375C83.9583 76.7292 84.2083 76.5833 84.5 76.5C84.375 76.25 84 76.1042 83.375 76.0625L83.25 75.875ZM78.875 78.0625H78.75L78.875 78.5L79.3125 78.3125C79.1042 78.1458 78.9583 78.0625 78.875 78.0625ZM81.9375 77.6875C81.8958 77.5625 81.625 77.5 81.125 77.5C81.2917 77.7917 81.2292 77.9792 80.9375 78.0625C80.8958 78.0208 80.7917 78.0208 80.625 78.0625L80.6875 78.1875L81 78.375C80.9583 78.5833 80.9583 78.7708 81 78.9375L81.375 78.5625C82 78.8542 82.3958 79.1667 82.5625 79.5C82.3958 79.5417 82.3333 79.625 82.375 79.75C82.9583 79.5417 83.3333 79.6042 83.5 79.9375L83.875 79.875L83.6875 79.4375C83.1458 79.6458 82.7292 79.3958 82.4375 78.6875L82.3125 78.4375L83.25 77.9375C82.4167 77.9375 81.9792 77.8542 81.9375 77.6875ZM78.5625 79.8125L78.3125 79.875L78.625 80.5625L78.8125 80.4375C79.1042 80.3542 79.2083 80.2292 79.125 80.0625L79 79.875C79 79.75 78.8542 79.7292 78.5625 79.8125ZM60.375 68.1875H60.625C60.9167 68.1875 61.0625 68.0833 61.0625 67.875V67.5H60.625C60.625 67.625 60.5417 67.8125 60.375 68.0625V68.1875ZM61.0625 66.75H61.3125V66.375H61.0625V66.75ZM51.3125 66.1875C51.6875 65.9792 52 65.875 52.25 65.875C52.25 65.5 52.0833 65.1042 51.75 64.6875C51.9167 64.6875 52 64.625 52 64.5L52.5 64.6875C52.375 64.0625 52.125 63.75 51.75 63.75C51.75 64.125 51.6042 64.3125 51.3125 64.3125C51.3125 64.5208 51.4583 64.8333 51.75 65.25C51.75 65.5 51.5208 65.625 51.0625 65.625V65.875L51.3125 66.1875ZM52 61.875C52.625 61.5833 52.9375 61.3333 52.9375 61.125C52.5208 60.25 52.2083 59.8125 52 59.8125H51.75C51.75 60.1875 51.9167 60.5625 52.25 60.9375L51.75 61.125C51.9167 61.3333 52 61.5833 52 61.875ZM62.5 69.125C62.9583 68.9583 63.1875 68.7917 63.1875 68.625V67.6875H62.75L62.5 69V69.125ZM64.125 68.75H64.375V68.375H64.125V68.75ZM67 68.75H66.5C66.5417 68.5 66.7083 68.375 67 68.375V68.75ZM67.6875 68.375H67.1875C67.1875 68.125 67.125 67.8958 67 67.6875L68.125 67.5V68C67.8333 68 67.6875 68.125 67.6875 68.375ZM63.6875 68H63.9375C64.6875 68 65.1458 67.75 65.3125 67.25H65.0625C64.8125 67.25 64.6667 67.3958 64.625 67.6875L63.9375 67.25C63.9375 67.4167 63.8542 67.625 63.6875 67.875V68ZM66.25 67.5C66.25 67.75 66.1042 67.875 65.8125 67.875V67.5H66.25ZM61.0625 67.5H61.8125V67.125H61.5625C61.2708 67.125 61.1042 67.25 61.0625 67.5ZM67.4375 67.25H67V67.125H67.4375V67.25ZM51.3125 59.625H51.75C51.625 59.375 51.5625 59.1875 51.5625 59.0625H51.3125V59.625ZM51.75 66.375C52 66.7083 52.25 66.875 52.5 66.875H52.9375C53.0208 66.375 53.2708 66.125 53.6875 66.125C53.6875 65.9167 53.5208 65.8125 53.1875 65.8125L53.4375 64.875C53.1042 64.875 52.9375 64.75 52.9375 64.5H52.75L51.75 65.25C51.75 65.625 52.0833 65.8125 52.75 65.8125V66.375H52.25L51.75 66.125V66.375ZM67 66.5C67 66.75 66.8333 66.875 66.5 66.875V66.125H67V66.5ZM68.375 66.5C68.2083 66.5 67.9792 66.5833 67.6875 66.75L67.4375 66.375V65.8125C67.8958 65.8958 68.2083 66.125 68.375 66.5ZM62.75 66.5H62.9375V66H62.75V66.5ZM66.0625 66H65.8125V65.4375H66.0625V66ZM62 65.8125H62.5V65.4375H62V65.8125ZM55.5625 65C55.5625 65.25 55.7083 65.3958 56 65.4375V65.25C56 65 55.8542 64.875 55.5625 64.875V65ZM54.625 65.25H55.0625C55.0625 65.0833 55.1458 64.875 55.3125 64.625V64.5H54.375L54.625 65.25ZM58.875 65C57.7917 64.7083 57.1458 64.3542 56.9375 63.9375L57.4375 63.75H58.125L57.9375 64.125C57.9375 64.375 58.3125 64.5 59.0625 64.5C58.9375 64.75 58.875 64.9167 58.875 65ZM61.6875 64.875H61.4375V64.25H61.6875V64.875ZM51.5625 57.1875H51.75V56.8125H51.5625V57.1875ZM56 64.625H56.9375C56.4792 64.2917 56.25 64 56.25 63.75H55.8125L56 64.625ZM54.8125 64.25H55.0625V63.9375H54.8125V64.25ZM53.4375 63.5625C53.4375 63.7292 53.75 63.9167 54.375 64.125L54.8125 63.5625C54.0625 63.5625 53.6875 63.375 53.6875 63H53.4375V63.5625ZM61.1875 63.9375L60.75 64.125V63.9375C60.7917 63.6875 60.9375 63.5625 61.1875 63.5625C61.5208 63.5625 61.6875 63.6875 61.6875 63.9375V64.125L61.1875 63.9375ZM60 63.9375C59.0833 63.7708 58.625 63.5833 58.625 63.375C58.7917 63.125 58.875 62.9167 58.875 62.75L59.5625 63.1875H59.8125C59.8125 62.8125 59.9583 62.625 60.25 62.625C60.5833 62.625 60.75 62.75 60.75 63V63.1875C60.125 63.1875 59.8125 63.25 59.8125 63.375C59.9375 63.5833 60 63.7708 60 63.9375ZM55.8125 62.75C55.8125 63 55.9583 63.1458 56.25 63.1875H58.125C58.125 62.6042 58.4375 62.3125 59.0625 62.3125V61.125L58.875 60.75C58.375 60.8333 58.0625 61.0833 57.9375 61.5L58.375 61.6875V61.3125H58.875V61.5C58.625 61.875 58.375 62.0625 58.125 62.0625H57.6875C57.2708 61.8125 56.875 61.6875 56.5 61.6875C56.0833 60.8958 55.6875 60.5 55.3125 60.5H54.8125C54.5625 60.5 54.4167 60.6458 54.375 60.9375V61.3125C54.6667 61.3125 54.8125 61.1875 54.8125 60.9375L55.3125 61.125C55.3125 61.25 55.2292 61.3125 55.0625 61.3125C56.3125 61.8542 56.9375 62.2083 56.9375 62.375V62.625C56.4375 62.625 56.0625 62.6667 55.8125 62.75ZM54.125 63H54.8125L54.625 62.0625H54.375L54.125 63ZM53.6875 62.375C53.9792 62.375 54.125 62.2708 54.125 62.0625H53.6875V62.375ZM55.0625 62.3125H55.5625V62.0625H55.0625V62.3125ZM56.9375 61.5H57.4375C57.4375 60.7917 57.6042 60.4375 57.9375 60.4375C57.9375 60.1458 57.7708 60 57.4375 60H57.1875V60.5L56.9375 61.5ZM59.8125 60.75C60.1042 60.75 60.25 60.6458 60.25 60.4375V60.1875H59.5625V60.4375L59.8125 60.75ZM53.6875 60.5L54.125 60.4375L53.6875 59.8125L53.1875 60L53.6875 60.5ZM55.8125 60.4375H56V60H55.8125V60.4375ZM58.125 59.8125C58.125 60.0208 58.2917 60.1458 58.625 60.1875H58.875C58.7083 59.9792 58.625 59.7292 58.625 59.4375C58.3333 59.4375 58.1667 59.5625 58.125 59.8125ZM61.1875 60.1875H61.4375V60C61.0625 59.3333 60.5833 58.9375 60 58.8125C60 58.6042 60.25 58.5 60.75 58.5C60.3333 57.875 60.0208 57.5625 59.8125 57.5625H59.5625L59.8125 57.9375V58.3125L59.5625 59.1875C59.7292 59.1875 59.8125 59.3333 59.8125 59.625C59.9375 59.625 60 59.5625 60 59.4375C60.7917 59.4375 61.1875 59.6875 61.1875 60.1875ZM61.6875 59.4375C61.9375 59.8125 62.1667 60 62.375 60V59.0625L61.6875 59.4375ZM53.875 59.8125C54.375 59.6875 54.625 59.3125 54.625 58.6875C54.625 58.4375 54.4583 58.3125 54.125 58.3125H53.875C53.875 58.4375 53.9583 58.5 54.125 58.5L53.875 59.4375V59.8125ZM55.3125 59.0625C55.3125 59.3542 55.7917 59.5417 56.75 59.625H56.9375V59.4375L56.75 59.0625C56.375 59.0625 56.0625 59.1042 55.8125 59.1875L55.3125 59.0625ZM58.625 58.8125L59.0625 58.6875C58.9375 58.4792 58.875 58.2292 58.875 57.9375H58.625V58.8125ZM56.9375 58.5H56.5C56.5417 58.25 56.6875 58.125 56.9375 58.125V58.5ZM57.9375 57.9375H58.375V57.5625H57.9375V57.9375ZM53.875 57.1875C53.875 57.3542 54.1875 57.5417 54.8125 57.75V57.1875C54.4792 57.1875 54.1667 57.1042 53.875 56.9375V57.1875ZM58.875 57.5625H59.0625V57.1875H58.875V57.5625ZM60.5 56.9375H61V56.8125H60.5V56.9375ZM118.344 69.4219C118.281 69.3594 118.234 69.3125 118.203 69.2812C118.328 69.0312 118.469 68.7969 118.625 68.5781C118.844 68.3281 119.062 68.0469 119.281 67.7344C119.438 67.4844 119.5 67.3125 119.469 67.2188C119.438 67.1875 119.469 67.125 119.562 67.0312C119.906 66.5938 120.125 66.3281 120.219 66.2344C120.656 65.7344 121 65.2188 121.25 64.6875C121.375 64.7812 121.328 64.7188 121.109 64.5V64.4531C121.266 64.2344 121.5 63.8906 121.812 63.4219C121.844 63.3594 121.875 63.3281 121.906 63.3281C122 63.2656 122.094 63.125 122.188 62.9062C122.25 62.8125 122.281 62.7656 122.281 62.7656C122.312 62.7344 122.438 62.5625 122.656 62.25C122.875 61.8125 123.016 61.5469 123.078 61.4531C123.109 61.4219 123.172 61.375 123.266 61.3125H123.219C123.281 61.375 123.328 61.3906 123.359 61.3594C123.328 61.3906 123.375 61.3125 123.5 61.125C123.531 61.125 123.594 61.0469 123.688 60.8906C123.719 60.9531 123.75 60.9531 123.781 60.8906C123.938 60.7031 124.016 60.6094 124.016 60.6094C124.078 60.4844 124.281 60.1094 124.625 59.4844C124.688 59.3594 124.734 59.2656 124.766 59.2031C124.766 59.1719 124.797 59.1094 124.859 59.0156C124.859 58.9844 124.844 58.9688 124.812 58.9688H124.859V59.0156C124.766 59.0469 124.734 59.1094 124.766 59.2031L124.625 59.25C124.625 59.25 124.578 59.2969 124.484 59.3906C124.422 59.3594 124.359 59.3125 124.297 59.25C124.359 59.1562 124.422 59.0938 124.484 59.0625C124.484 59.0625 124.469 59.0781 124.438 59.1094L124.484 59.0625C124.578 59 124.688 58.8594 124.812 58.6406C124.906 58.4219 124.984 58.25 125.047 58.125C125.422 57.5 125.562 57.2656 125.469 57.4219C125.969 56.4844 126.562 55.6406 127.25 54.8906C127.719 54.3906 128.141 53.7188 128.516 52.875C128.547 52.8438 128.562 52.7969 128.562 52.7344L128.609 52.6875C128.547 52.6562 128.5 52.6406 128.469 52.6406L128.516 52.4531C128.922 51.6094 129.312 50.9219 129.688 50.3906C129.781 50.2344 129.906 50.1406 130.062 50.1094C130.219 50.0469 130.344 49.9219 130.438 49.7344C130.469 49.6406 130.516 49.5 130.578 49.3125C130.672 49.125 130.734 49 130.766 48.9375C130.828 48.7812 130.891 48.6719 130.953 48.6094C131.047 48.5156 131.125 48.3906 131.188 48.2344C131.312 47.8594 131.359 47.7344 131.328 47.8594C131.391 47.6094 131.594 47.1406 131.938 46.4531C131.938 46.4531 132 46.3906 132.125 46.2656C132.375 46.0156 132.5 45.8906 132.5 45.8906C132.5 45.8906 132.516 45.8125 132.547 45.6562C132.297 45.6562 132.172 45.6562 132.172 45.6562C131.703 45.6875 130.875 45.6562 129.688 45.5625C129.25 45.5312 128.531 45.5312 127.531 45.5625C127.125 45.625 125.969 45.6562 124.062 45.6562C123.469 45.6875 122.656 45.7031 121.625 45.7031H119.188C117.719 45.7031 116.734 45.7188 116.234 45.75C116.172 45.75 115.562 45.7656 114.406 45.7969C114.406 45.7969 114.406 45.7812 114.406 45.75C114.406 45.7188 114.406 45.7031 114.406 45.7031C113.812 45.6094 113.359 45.5938 113.047 45.6562C113.016 45.6562 112.891 45.6406 112.672 45.6094C112.453 45.6094 112.281 45.6406 112.156 45.7031C112.062 45.7344 111.906 45.75 111.688 45.75C110.406 45.6562 108.938 45.875 107.281 46.4062C107.219 46.4375 107.172 46.4531 107.141 46.4531C107.078 46.5156 106.641 46.6875 105.828 46.9688L105.688 47.0156C105.688 47.0156 105.75 47.0312 105.875 47.0625C105.875 47.125 105.812 47.1875 105.688 47.25C105.188 47.5 104.719 47.7969 104.281 48.1406C103.188 48.9844 102.359 50.0469 101.797 51.3281C101.609 51.7344 101.375 52.2812 101.094 52.9688C101.094 53 101.047 53.1562 100.953 53.4375C100.922 53.5312 100.906 53.5625 100.906 53.5312C100.969 53.4375 100.844 53.8594 100.531 54.7969C100.5 54.8906 100.281 55.5156 99.875 56.6719C99.7188 57.1094 99.6406 57.4688 99.6406 57.75C99.6406 57.8125 99.6094 57.875 99.5469 57.9375C99.2656 58.2188 99.1094 58.5312 99.0781 58.875C99.0781 59 98.9844 59.5938 98.7969 60.6562C98.3281 60.875 97.8281 61.0938 97.2969 61.3125C97.2031 61.1562 97.1562 61.0781 97.1562 61.0781C97.1562 61.0781 97.1562 61.0156 97.1562 60.8906V41.7656C97.1562 41.4844 97.2656 41.2656 97.4844 41.1094H98C102.625 41.1094 106.094 41.1094 108.406 41.1094H112.484C112.703 41.1094 112.844 41.1094 112.906 41.1094C113.125 41.0469 113.297 41.0469 113.422 41.1094C113.453 41.1094 113.5 41.1094 113.562 41.1094C113.844 41.0781 114.219 41.0625 114.688 41.0625C115.25 41.0938 115.625 41.1094 115.812 41.1094C115.906 41.1094 116.625 41.1094 117.969 41.1094H123.219C123.156 41.1094 123.359 41.0938 123.828 41.0625C124.359 41.0312 124.656 41.0156 124.719 41.0156C125.406 41.0156 126.328 41.0312 127.484 41.0625C128.891 41.0625 129.828 41.0625 130.297 41.0625C132.484 41.0938 134.469 41.1094 136.25 41.1094C136.625 41.1094 137.156 41.1094 137.844 41.1094H139.391C139.734 41.1094 139.984 41.0625 140.141 40.9688C140.234 40.9062 140.344 40.8906 140.469 40.9219C140.781 40.9844 141.328 41.0156 142.109 41.0156C142.609 41.0156 143.281 41.0312 144.125 41.0625C145.062 41.0625 145.734 41.0781 146.141 41.1094H146.422C146.484 41.2969 146.438 41.5156 146.281 41.7656C145.844 42.4219 145.594 42.875 145.531 43.125C145.5 43.3438 145.484 43.4844 145.484 43.5469C145.516 43.6406 145.484 43.75 145.391 43.875C145.203 44.1562 145.125 44.2812 145.156 44.25C144.969 44.5 144.719 45 144.406 45.75C144.312 46 144.188 46.1719 144.031 46.2656C143.938 46.3281 143.859 46.4531 143.797 46.6406C143.734 46.8281 143.688 46.9375 143.656 46.9688C143.625 46.875 143.625 46.7656 143.656 46.6406C143.656 46.5156 143.641 46.4219 143.609 46.3594C143.578 46.3594 143.531 46.3906 143.469 46.4531C143.25 46.8281 143.141 47.0156 143.141 47.0156C143.078 47.0781 143.016 47.2031 142.953 47.3906C142.891 47.5469 142.812 47.6719 142.719 47.7656C142.688 47.7969 142.531 48.0469 142.25 48.5156C142.25 48.5156 142.203 48.625 142.109 48.8438C142.328 48.875 142.594 48.8125 142.906 48.6562C142.938 48.6875 142.906 48.75 142.812 48.8438C142.812 48.875 142.625 49.125 142.25 49.5938C141.906 50 141.625 50.4688 141.406 51C141.344 51.125 141.281 51.2656 141.219 51.4219C141.188 51.5156 141.156 51.5781 141.125 51.6094C141 51.7031 140.781 52.0312 140.469 52.5938C140.469 52.5938 140.422 52.6719 140.328 52.8281C140.297 52.7344 140.234 52.625 140.141 52.5C140.016 52.6562 139.953 52.75 139.953 52.7812C139.453 53.5938 139.094 54.3438 138.875 55.0312C138.875 55.0938 138.844 55.25 138.781 55.5C138.781 55.5 138.812 55.5156 138.875 55.5469C138.969 55.3906 139.016 55.3125 139.016 55.3125C139.047 55.2188 139.141 55.0312 139.297 54.75C139.422 54.5 139.516 54.3125 139.578 54.1875C139.641 54.0625 139.719 54 139.812 54H139.766C139.609 54.2188 139.5 54.4844 139.438 54.7969C139.406 54.9531 139.359 55.0781 139.297 55.1719C139.234 55.2656 139.141 55.4062 139.016 55.5938C138.891 55.8125 138.797 55.9688 138.734 56.0625C138.641 56.2188 138.547 56.2969 138.453 56.2969C138.422 56.3281 138.359 56.4062 138.266 56.5312C138.078 56.8125 137.922 57 137.797 57.0938C137.859 56.9062 137.969 56.5938 138.125 56.1562C138.25 55.75 138.344 55.4219 138.406 55.1719C138.344 55.2031 138.281 55.25 138.219 55.3125C137.938 55.8125 137.688 56.2344 137.469 56.5781C137.438 56.6719 137.406 56.7656 137.375 56.8594C137.281 57.3594 137.219 57.7031 137.188 57.8906C137.156 58.1094 137.031 58.3281 136.812 58.5469C136.781 58.5781 136.734 58.5938 136.672 58.5938C136.672 58.5938 136.594 58.5625 136.438 58.5C136.375 58.5938 136.344 58.6406 136.344 58.6406C136.156 58.9531 135.984 59.375 135.828 59.9062C135.797 60 135.719 60.1875 135.594 60.4688C135.5 60.7188 135.438 60.9219 135.406 61.0781C135.438 60.9531 135.125 61.5156 134.469 62.7656C134.406 62.9219 134.281 63.0312 134.094 63.0938C133.969 63.1562 133.875 63.25 133.812 63.375C133.781 63.5312 133.703 63.7969 133.578 64.1719C133.578 64.1719 133.547 64.2344 133.484 64.3594C133.234 64.3281 133.125 64.3125 133.156 64.3125C132.938 64.6562 132.891 64.9375 133.016 65.1562C132.766 65.5 132.625 65.6875 132.594 65.7188C132.25 66.1562 132.109 66.3438 132.172 66.2812C131.922 66.625 131.797 66.8125 131.797 66.8438C131.828 66.8125 131.875 66.7812 131.938 66.75C132.031 66.75 132.078 66.7344 132.078 66.7031C132.109 66.7344 132.125 66.75 132.125 66.75C131.938 67.0938 131.781 67.3594 131.656 67.5469C131.625 67.6406 131.562 67.6875 131.469 67.6875C131.5 67.5312 131.516 67.4531 131.516 67.4531C131.547 67.3594 131.5 67.3125 131.375 67.3125C131.344 67.3125 131.281 67.3281 131.188 67.3594C131.156 67.3594 131.125 67.375 131.094 67.4062C130.75 68.0625 130.578 68.3906 130.578 68.3906C130.547 68.4844 130.391 69.0156 130.109 69.9844C129.922 70.1094 129.844 70.1406 129.875 70.0781C129.562 70.7656 128.797 72.1719 127.578 74.2969C127.516 74.3906 127.469 74.4531 127.438 74.4844C127.281 74.6094 127.047 74.9219 126.734 75.4219C126.453 75.8906 126.328 76.1094 126.359 76.0781C126.391 76.0156 126.297 76.2344 126.078 76.7344C125.984 76.8906 125.906 76.9844 125.844 77.0156C125.844 77.0156 125.812 77.0625 125.75 77.1562C125.312 77.9688 125.031 78.4844 124.906 78.7031C124.75 78.9531 124.703 79.125 124.766 79.2188C124.766 79.25 124.766 79.2656 124.766 79.2656C124.391 79.7969 124.156 80.0781 124.062 80.1094C124.094 80.0469 124.141 79.9688 124.203 79.875C124.266 79.75 124.312 79.6562 124.344 79.5938C124.281 79.5938 124.156 79.5781 123.969 79.5469C123.844 79.7656 123.781 79.8906 123.781 79.9219C123.312 80.7969 122.812 81.9062 122.281 83.25C122.094 83.7812 121.859 84.2344 121.578 84.6094C121.484 84.7344 121.297 85.0156 121.016 85.4531C120.984 85.4844 120.922 85.5938 120.828 85.7812C120.797 85.8438 120.781 85.8594 120.781 85.8281C120.625 85.9219 120.5 86.0781 120.406 86.2969C120.25 86.5469 120.125 86.7031 120.031 86.7656C120 86.6719 120 86.5312 120.031 86.3438C119.938 86.4062 119.891 86.4375 119.891 86.4375C119.703 86.9062 119.578 87.2344 119.516 87.4219C119.453 87.5781 119.438 87.7031 119.469 87.7969C119.469 87.7969 119.469 87.8281 119.469 87.8906C119.438 87.9219 119.422 87.9531 119.422 87.9844C119.172 88.2344 118.922 88.6875 118.672 89.3438C118.609 89.5 118.359 90.0156 117.922 90.8906C117.859 91.0156 117.781 91.0781 117.688 91.0781C117.656 91.0781 117.625 91.125 117.594 91.2188C117.406 91.625 117.031 92.2188 116.469 93C116.219 93.3438 116.125 93.4531 116.188 93.3281C115.844 93.7969 115.656 94.2656 115.625 94.7344C115.594 94.8281 115.562 94.8906 115.531 94.9219C115.469 94.9844 115.391 95.125 115.297 95.3438C115.234 95.5 115.156 95.625 115.062 95.7188C115 95.75 114.922 95.8594 114.828 96.0469C114.141 97.3281 113.859 97.875 113.984 97.6875C113.922 97.75 113.672 98.1562 113.234 98.9062C113.078 99.1875 112.984 99.375 112.953 99.4688C112.859 99.4375 112.922 99.4219 113.141 99.4219L113.188 99.4688C113.125 99.5938 113.016 99.7188 112.859 99.8438C112.453 100.188 112.172 100.594 112.016 101.062C111.859 101.438 111.719 101.75 111.594 102C111.5 102.031 111.281 102.047 110.938 102.047C110.875 102.047 110.828 102.031 110.797 102C110.734 101.938 110.594 101.906 110.375 101.906H109.438C109.219 101.906 109.094 101.906 109.062 101.906C109 101.875 108.672 101.875 108.078 101.906C107.672 101.906 107.188 101.891 106.625 101.859C106.125 101.828 105.797 101.844 105.641 101.906H105.359C104.391 101.938 103.922 101.953 103.953 101.953C103.609 101.953 103.328 101.953 103.109 101.953C103.109 101.953 102.984 101.938 102.734 101.906C102.891 101.875 103.109 101.859 103.391 101.859C103.641 101.859 103.844 101.844 104 101.812V101.766L103.953 101.719C103.766 101.75 103.406 101.766 102.875 101.766C102.375 101.766 102 101.781 101.75 101.812C101.25 101.875 100.406 101.891 99.2188 101.859C99.25 101.766 99.2656 101.703 99.2656 101.672C99.6094 101.109 99.8281 100.766 99.9219 100.641C99.9844 100.516 100.172 100.188 100.484 99.6562C100.547 99.5 100.641 99.3438 100.766 99.1875C101.234 98.5938 101.547 98.0312 101.703 97.5C101.797 97.0312 101.984 96.6719 102.266 96.4219C102.359 96.3281 102.422 96.2188 102.453 96.0938C102.453 95.9375 102.484 95.7969 102.547 95.6719C102.484 95.8281 102.875 95.1406 103.719 93.6094C103.781 93.4844 103.875 93.4062 104 93.375C104.125 93.3125 104.25 93.1875 104.375 93C104.594 92.6562 104.859 92.1406 105.172 91.4531C105.172 91.4219 105.203 91.3594 105.266 91.2656C105.297 91.1719 105.328 91.0938 105.359 91.0312C105.391 90.9375 105.469 90.875 105.594 90.8438C105.656 90.8438 105.703 90.8125 105.734 90.75C105.953 90.4375 106.188 90 106.438 89.4375C106.344 89.4688 106.25 89.4844 106.156 89.4844C106.219 89.3906 106.25 89.3281 106.25 89.2969C106.281 89.2344 106.359 89.1562 106.484 89.0625C106.578 88.9375 106.656 88.8438 106.719 88.7812C106.812 88.6562 106.891 88.5469 106.953 88.4531C107.266 87.7656 107.703 87 108.266 86.1562C108.453 85.9062 108.641 85.625 108.828 85.3125C108.953 85.125 109.016 85 109.016 84.9375C109.047 84.9062 109.078 84.7656 109.109 84.5156C109.234 84.4531 109.312 84.3906 109.344 84.3281C109.438 84.2031 109.547 84.0156 109.672 83.7656C109.828 83.4844 109.938 83.2812 110 83.1562C109.906 83.3125 110.141 82.8438 110.703 81.75C110.828 81.5 110.984 81.2812 111.172 81.0938C111.484 80.7812 111.688 80.4844 111.781 80.2031C111.781 80.2031 111.875 80.0312 112.062 79.6875C112.031 79.6875 112.109 79.7031 112.297 79.7344C112.391 79.5156 112.453 79.3906 112.484 79.3594C112.609 79.1094 112.703 78.9688 112.766 78.9375C112.797 78.9062 112.844 78.8438 112.906 78.75C113.25 78 113.469 77.5 113.562 77.25C113.781 76.7188 114.062 76.2344 114.406 75.7969C114.469 75.8906 114.469 75.9688 114.406 76.0312C114.281 76.2188 114.156 76.4062 114.031 76.5938C114.031 76.5938 114.031 76.6562 114.031 76.7812C114.438 76.4062 114.703 76.0469 114.828 75.7031C114.922 75.4219 114.953 75.2344 114.922 75.1406C114.922 75.1094 114.953 75.0469 115.016 74.9531C115.484 74.2344 115.812 73.6719 116 73.2656C116 73.2031 116.062 73.1406 116.188 73.0781C116.219 73.0781 116.297 72.9844 116.422 72.7969C116.453 72.8281 116.484 72.8281 116.516 72.7969C116.734 72.6094 116.859 72.375 116.891 72.0938C116.922 71.9062 117.109 71.5156 117.453 70.9219C117.578 70.8594 117.734 70.625 117.922 70.2188C118.141 69.75 118.281 69.4844 118.344 69.4219C118.344 69.3594 118.344 69.3438 118.344 69.375V69.3281L118.297 69.375C118.297 69.375 118.312 69.3906 118.344 69.4219ZM104.703 99.75C105.016 99.8438 105.234 99.7812 105.359 99.5625L105.453 99.375L104.703 99.1406L104.609 99.3281L104.703 99.75ZM103.391 98.25C103.297 98.4688 103.406 98.6562 103.719 98.8125L103.953 98.9062C103.953 98.625 104.031 98.3438 104.188 98.0625C103.875 97.9688 103.609 98.0312 103.391 98.25ZM106.719 99.75L106.859 99.5625C106.828 98.8125 106.531 98.2812 105.969 97.9688C106.094 97.7812 106.422 97.7656 106.953 97.9219C106.859 97.2344 106.703 96.8438 106.484 96.75L106.203 96.6562L106.297 97.125L106.062 97.4531L105.266 98.2031C105.453 98.2656 105.484 98.4062 105.359 98.625C105.484 98.6875 105.578 98.6562 105.641 98.5312C106.484 98.8125 106.75 99.2031 106.438 99.7031L106.719 99.75ZM107.469 99.0938C107.5 99.5312 107.625 99.7969 107.844 99.8906L108.359 99L107.469 99.0938ZM105.078 97.5C105.016 97.2812 105.078 97.0312 105.266 96.75L105.031 96.6562L104.516 97.5H105.078ZM104.75 96.6094L104.938 96.2812L104.469 96.0938L104.281 96.4219L104.75 96.6094ZM105.688 96.5156L105.922 96.0938L105.688 96.0469L105.453 96.4219L105.688 96.5156ZM108.078 96.5625L108.172 96.375L107.656 96.2344L107.562 96.375L108.078 96.5625ZM107.188 95.9062L107.281 95.7656L106.812 95.625L106.719 95.8125L107.188 95.9062ZM108.219 95.3438L108.5 94.8281L107.938 94.6875L107.656 95.2031L108.219 95.3438ZM110.234 95.8594L110.469 95.4844L110.234 95.3906L110 95.8125L110.234 95.8594ZM106.953 94.3594C107.109 94.1094 107.734 93.9062 108.828 93.75C107.672 93.4062 106.891 93.5625 106.484 94.2188L106.953 94.3594ZM109.203 94.6875L109.391 94.3594L109.109 94.2656L108.922 94.5938L109.203 94.6875ZM109.625 94.0312L109.812 93.6562L109.531 93.5625L109.344 93.9375L109.625 94.0312ZM108.781 93.2812L109.109 92.3906L108.828 92.25H108.219L108.031 93.0469L108.781 93.2812ZM107.094 92.0625C106.969 92.3125 107.078 92.5 107.422 92.625L107.516 92.4844C107.672 92.2656 107.562 92.0781 107.188 91.9219L107.094 92.0625ZM108.734 91.4062C108.891 91.4375 109.109 91.5938 109.391 91.875L109.578 91.9219L109.953 91.3594C109.922 90.9219 109.766 90.6719 109.484 90.6094L109.25 90.5156L108.734 91.4062ZM107.938 90.7031C108.312 90.8281 108.562 90.7812 108.688 90.5625L108.781 90.375L108.031 90.1406C108.031 90.3594 108 90.5469 107.938 90.7031ZM112.438 91.7344L112.719 91.2656L112.484 91.1719L112.203 91.6875L112.438 91.7344ZM113.234 89.8594L113.375 89.6719C113.5 89.4531 113.391 89.2969 113.047 89.2031C112.422 89.2656 112.062 89.3594 111.969 89.4844L113.234 89.8594ZM114.312 89.5781C114.438 89.3594 114.328 89.1875 113.984 89.0625L113.797 89.4375L114.312 89.5781ZM110.609 87.7969L111.078 87.9844L110.938 88.125L110.516 87.9844L110.609 87.7969ZM110.891 86.8125C110.578 86.7188 110.453 86.5625 110.516 86.3438L111.031 86.0625C111.375 86.1562 111.469 86.3281 111.312 86.5781L110.891 86.8125ZM114.219 87.7969C114.312 87.6406 114.516 87.4531 114.828 87.2344L114.312 87.0938L113.938 87.7031L114.219 87.7969ZM115.25 87C115.344 86.4375 115.25 86.1094 114.969 86.0156L114.5 86.7188L115.25 87ZM113.375 85.1719L113.516 84.9844L112.719 84.75L112.578 84.8906L113.375 85.1719ZM134 49.0781L134.188 49.7812C134.156 49.875 133.406 50 131.938 50.1562C132.219 50.3125 132.453 50.4219 132.641 50.4844C132.891 50.5156 133.312 50.6094 133.906 50.7656C133.938 50.9844 133.875 51.25 133.719 51.5625L133.344 51.7969C133.656 51.8906 133.688 52.1406 133.438 52.5469L133.719 52.5938L134.422 51.8906L134.703 51.9844L135.078 52.3125L135.594 51.4219L135.312 51.3281L135.078 51.7031L134.938 51.6562C134.75 51.5938 134.438 51.0781 134 50.1094L134.75 49.7344C134.438 49.6719 134.359 49.5 134.516 49.2188L134 49.0781ZM135.266 49.4531L135.031 49.875L135.828 50.1094L136.062 49.7344L135.266 49.4531ZM136.062 50.625L135.875 51C136.219 51.0938 136.453 51.0156 136.578 50.7656L136.062 50.625ZM134.609 53.1094L134.516 53.2031L135.031 53.3906C135.344 53.4844 135.562 53.4375 135.688 53.25L135.828 53.0625L135.359 52.875C134.984 52.8125 134.734 52.8906 134.609 53.1094ZM133.344 52.6875L133.25 52.8281C133.156 53.0781 133.266 53.2656 133.578 53.3906L133.859 53.4375C133.797 53.125 133.797 52.9375 133.859 52.875L133.344 52.6875ZM131.562 52.3125L131.047 52.5938C131.891 52.8438 132.141 53.2656 131.797 53.8594L132.078 53.9062H132.641C133.016 53.25 132.656 52.7188 131.562 52.3125ZM133.719 53.625C133.719 53.875 133.688 54.0781 133.625 54.2344L133.859 54.3281C133.953 54.2031 134.156 54.0469 134.469 53.8594L133.719 53.625ZM130.906 53.3906V53.8125L130.109 54.1406L130.859 54.375L131.469 53.2969L130.906 53.3906ZM133.859 54.9375L133.578 55.875L134.047 55.9688L134.328 55.0312L133.859 54.9375ZM131.094 54.4219C131 54.5781 130.812 54.7344 130.531 54.8906L131.047 55.0312L131.375 54.5156L131.094 54.4219ZM131.984 54.9375L131.938 55.0781C131.969 55.3906 131.938 55.6094 131.844 55.7344C131.406 55.7344 131.125 55.7188 131 55.6875L130.812 56.0156L131.281 56.2031L132.266 56.0625C132.172 56.3125 132.266 56.4844 132.547 56.5781C132.578 56.4844 132.766 56.3438 133.109 56.1562C132.734 56.0312 132.453 55.6562 132.266 55.0312L131.984 54.9375ZM129.641 54.375L129.406 54.7031L129.688 54.8438L129.922 54.4219L129.641 54.375ZM132.5 57.2344L131.984 58.0781C132.234 58.1406 132.703 58 133.391 57.6562L133.484 57.5156L132.5 57.2344ZM129.828 56.4844L129.641 56.9062C129.672 57.1562 129.656 57.375 129.594 57.5625L129.875 57.6094C129.938 57.4844 130.109 57.3281 130.391 57.1406L129.828 56.4844ZM129.031 56.4844L128.141 56.8125L128.047 57.0469L128.328 57.0938C128.734 57.0625 129.016 57.0781 129.172 57.1406L129.266 57.0469C129.422 56.7969 129.344 56.6094 129.031 56.4844ZM131.094 58.4062L131.047 58.5469L131.609 58.6875L131.656 58.5938L131.094 58.4062ZM130.203 58.9688C130.141 59.5 130.25 59.8125 130.531 59.9062L130.719 59.5781C130.875 59.3281 130.797 59.1562 130.484 59.0625L130.203 58.9688ZM131.609 59.625L131 60.6094L131.234 60.6562L131.844 59.6719L131.609 59.625ZM128.703 59.9062C128.641 60.0312 128.469 60.2031 128.188 60.4219L128.375 60.4688C128.75 60.5938 129.016 60.5312 129.172 60.2812L129.266 60.0938L128.703 59.9062ZM130.156 60.6094L130.016 60.75L130.766 60.9844L130.859 60.8438L130.156 60.6094ZM129.969 61.4062C129.844 61.625 129.531 61.6562 129.031 61.5L128.938 61.7344C128.812 61.9219 128.891 62.0781 129.172 62.2031L129.406 61.8281L129.922 61.9688L130.297 62.25C130.328 62.1875 130.438 62.1875 130.625 62.25C130.594 61.9688 130.609 61.75 130.672 61.5938L129.969 61.4062ZM128.328 61.125L128.234 61.2656L128.75 61.4531L128.844 61.2656L128.328 61.125ZM126.969 60.8906L126.781 61.1719C126.656 61.4219 126.75 61.6094 127.062 61.7344L127.344 61.7812C127.531 61.5312 127.734 61.3281 127.953 61.1719L126.969 60.8906ZM125.75 60.8438L125.281 62.25L125.797 62.3906L125.75 61.9688L126.312 61.0312L125.75 60.8438ZM127.906 61.7812L127.719 62.1562C128.062 62.25 128.297 62.1875 128.422 61.9688L127.906 61.7812ZM130.156 62.4844L129.922 62.8594L130.203 62.9531L130.438 62.5781L130.156 62.4844ZM128.797 62.25L128.562 62.625C128.5 62.875 128.625 63.0469 128.938 63.1406L129.172 63.2344C129.141 62.9844 129.203 62.7188 129.359 62.4375L128.797 62.25ZM126.125 62.25L126.031 62.4844C126 63.0156 126.125 63.3125 126.406 63.375L127.156 63.6094C127.5 63.7344 127.734 63.6875 127.859 63.4688L128.047 63.0938C127.484 63.2188 127.062 63.2188 126.781 63.0938C126.281 62.9375 126.141 62.6719 126.359 62.2969L126.125 62.25ZM128.703 63.5625L127.906 64.3125L128.891 64.1719C128.859 63.9219 128.875 63.7188 128.938 63.5625H128.703ZM124.531 62.5312L124.062 63.2812L124.25 63.3281L124.719 62.5781L124.531 62.5312ZM125.609 63.5625L125.422 63.8906L126.359 64.4062L127.156 64.0781L127.297 63.8438L125.609 63.5625ZM129.312 64.5L129.078 64.875L129.594 65.0625C129.75 64.7812 129.656 64.5938 129.312 64.5ZM127.719 64.6406L127.203 64.9219L127.109 65.1094C127.516 65.2344 127.828 65.3906 128.047 65.5781L128.891 65.2031L127.719 64.6406ZM126.875 64.5938L126.641 64.9688L126.922 65.0625L127.156 64.6406L126.875 64.5938ZM124.719 64.125L124.438 64.5938L124.672 64.6875L124.953 64.2188L124.719 64.125ZM124.578 64.875L124.344 65.25C124.688 65.375 124.938 65.3125 125.094 65.0625L124.578 64.875ZM127.25 65.9531L126.453 66.75L127.391 66.6562C127.391 66.375 127.422 66.1562 127.484 66L127.25 65.9531ZM124.766 65.5781L124.812 66L124.719 66.2344C124.188 66.0469 123.891 66.0156 123.828 66.1406L123.875 66.5156C123.594 66.6406 123.375 66.8594 123.219 67.1719L123.078 67.3594L124.766 67.0312L124.719 66.6094L125.938 66.1406L125.516 65.8125L124.766 65.5781ZM123.406 65.3438L123.312 65.5312L124.062 65.7656L124.156 65.625L123.406 65.3438ZM122.984 66.0469L122.75 66.4219L123.031 66.4688L123.266 66.1406L122.984 66.0469ZM127.016 67.3125L126.922 67.4531C126.953 67.7031 126.844 68.0469 126.594 68.4844L126.875 68.5312C127.219 68.6562 127.453 68.6094 127.578 68.3906C127.266 67.8906 127.156 67.5625 127.25 67.4062L127.016 67.3125ZM122.938 68.1094L122.844 68.25L123.406 68.4375C124.094 68.3125 124.594 68.2969 124.906 68.3906C124.875 68.0781 124.906 67.8438 125 67.6875L124.766 67.6406C124.516 67.5469 123.906 67.7031 122.938 68.1094ZM125.797 68.4375L125.609 68.7656L125.844 68.8125L126.031 68.4844L125.797 68.4375ZM125.609 69.1406L125.094 70.0781L125.328 70.125C125.734 70.0938 126.031 70.125 126.219 70.2188C126.312 70.0312 126.109 69.6719 125.609 69.1406ZM120.922 68.9531L121.719 69.2344L122.375 68.5312C122.156 68.4688 121.672 68.6094 120.922 68.9531ZM123.547 69.1406C123.328 69.5156 123.062 69.6406 122.75 69.5156C122.812 69.4219 122.75 69.3438 122.562 69.2812L122.328 69.6562C122.828 69.8125 123.031 69.9531 122.938 70.0781C123.375 70.0469 123.688 70.0625 123.875 70.125L124.016 69.9375C124.109 69.7812 123.953 69.5156 123.547 69.1406ZM124.766 71.0625L124.672 71.2031L125.188 71.3438L125.469 70.875C125.125 70.8125 124.891 70.875 124.766 71.0625ZM121.438 70.1719L121.109 71.1562L121.859 71.3906L122.094 71.0156V70.5938H122.656C123 70.7188 123.109 70.875 122.984 71.0625C123.359 71.0938 123.641 71.125 123.828 71.1562L123.922 70.9688C124.078 70.7188 124 70.5469 123.688 70.4531C122.281 70.2969 121.531 70.2031 121.438 70.1719ZM120.312 69.6094L120.219 69.7969L121.203 70.0781L121.297 69.8906L120.312 69.6094ZM122.656 71.625L122.422 71.9531C122.922 72.1094 123.094 72.3438 122.938 72.6562L123.219 72.75L123.688 71.9531L122.656 71.625ZM125.094 72.5625L124.906 72.9375L125.141 72.9844L125.328 72.6562L125.094 72.5625ZM119.141 71.9062L119 72.1406L119.797 72.4219L120.172 71.8125L119.938 71.7188C119.531 71.6562 119.266 71.7188 119.141 71.9062ZM121.719 73.1719L121.531 73.5C121.844 73.625 122.062 73.5781 122.188 73.3594L121.719 73.1719ZM120.359 74.3906L120.641 74.4844L122.609 74.6719C122.578 74.3906 122.594 74.2188 122.656 74.1562C121.469 74.0312 120.703 74.1094 120.359 74.3906ZM119.562 73.3125L119.328 73.6406L119.562 73.6875L119.797 73.3594L119.562 73.3125ZM122.516 75.3281L122.281 75.6562L122.844 75.8438L123.078 75.5156L122.516 75.3281ZM121.344 75.8906L121.109 76.3125C121.422 76.375 121.656 76.2812 121.812 76.0312L121.344 75.8906ZM119.141 76.5L119.422 76.5469C119.766 76.6719 120 76.625 120.125 76.4062L119.844 76.3125C119.5 76.25 119.266 76.3125 119.141 76.5ZM117.172 76.3125L116.984 76.5938L117.969 76.9219C117.781 76.5781 117.75 76.2969 117.875 76.0781C117.531 76.0469 117.297 76.125 117.172 76.3125ZM119.891 77.1562C119.828 77.4062 119.953 77.5625 120.266 77.625L120.453 77.3438L119.891 77.1562ZM118.484 77.0156L118.25 77.4375L118.531 77.5312L118.766 77.1094L118.484 77.0156ZM118.766 78.7031L118.531 79.0781L118.719 79.1719L118.953 78.75L118.766 78.7031ZM117.172 78.7969L117.359 78.8906C117.734 78.9844 118 78.9219 118.156 78.7031L117.875 78.6562C117.531 78.5938 117.297 78.6406 117.172 78.7969ZM121.109 79.6875L121.016 79.875L121.531 80.0156L121.625 79.8281L121.109 79.6875ZM116.469 78.4219L115.953 79.3125L116.469 79.4531C116.406 79.2031 116.484 78.8906 116.703 78.5156L116.469 78.4219ZM118.672 79.7344L119.188 79.9219L119.422 79.5C119.047 79.4688 118.797 79.5469 118.672 79.7344ZM117.828 79.2188L117.594 79.5938L117.828 79.6875L118.062 79.3125L117.828 79.2188ZM118.297 79.8281C118.359 80.0781 118.344 80.2969 118.25 80.4844L118.531 80.5312L118.859 79.9688L118.297 79.8281ZM116.328 80.25L116.141 80.5781C116.016 80.8594 116.094 81.0312 116.375 81.0938C116.719 81.2188 116.969 81.1562 117.125 80.9062L117.219 80.7188L117.172 80.2969C116.734 80.3281 116.453 80.3125 116.328 80.25ZM118.438 80.7188L117.641 81.5156L118.062 81.7969C118.125 81.7344 118.406 81.4219 118.906 80.8594L118.438 80.7188ZM117.078 81.5156L116.891 81.8438L117.359 82.0312C117.484 81.7812 117.391 81.6094 117.078 81.5156ZM114.453 80.9062L113.75 81.5156L114.219 81.7031C114.312 81.5781 114.516 81.4062 114.828 81.1875L114.453 80.9062ZM115.906 81.3281L115.812 81.5156L116.375 81.7031L116.469 81.5156L115.906 81.3281ZM115.344 81.375L115.109 81.75L115.578 81.8906C115.734 81.6406 115.656 81.4688 115.344 81.375ZM117.5 82.3125L117.219 82.8281L117.453 82.875L117.734 82.3594L117.5 82.3125ZM114.688 81.8438L114.219 82.6406C114.5 82.7344 114.859 82.6406 115.297 82.3594C115.391 82.1719 115.281 82.0312 114.969 81.9375L114.688 81.8438ZM115.156 83.2031L114.922 83.5781L115.438 83.7188C115.594 83.4688 115.5 83.2969 115.156 83.2031ZM115.953 84.375L115.859 84.4688L116.375 84.6562L116.469 84.5156L115.953 84.375Z" fill="#DAFFD8"/>
</g>
<defs>
<filter id="filter0_dd_963_1065" x="0.825001" y="0.825001" width="173.491" height="133.225" filterUnits="userSpaceOnUse" color-interpolation-filters="sRGB">
<feFlood flood-opacity="0" result="BackgroundImageFix"/>
<feColorMatrix in="SourceAlpha" type="matrix" values="0 0 0 0 0 0 0 0 0 0 0 0 0 0 0 0 0 0 127 0" result="hardAlpha"/>
<feOffset dy="4"/>
<feGaussianBlur stdDeviation="13.9"/>
<feComposite in2="hardAlpha" operator="out"/>
<feColorMatrix type="matrix" values="0 0 0 0 0 0 0 0 0 0.908654 0 0 0 0 0.10601 0 0 0 1 0"/>
<feBlend mode="normal" in2="BackgroundImageFix" result="effect1_dropShadow_963_1065"/>
<feColorMatrix in="SourceAlpha" type="matrix" values="0 0 0 0 0 0 0 0 0 0 0 0 0 0 0 0 0 0 127 0" result="hardAlpha"/>
<feOffset dy="4"/>
<feGaussianBlur stdDeviation="3.65"/>
<feComposite in2="hardAlpha" operator="out"/>
<feColorMatrix type="matrix" values="0 0 0 0 0 0 0 0 0 0 0 0 0 0 0 0 0 0 1 0"/>
<feBlend mode="normal" in2="effect1_dropShadow_963_1065" result="effect2_dropShadow_963_1065"/>
<feBlend mode="normal" in="SourceGraphic" in2="effect2_dropShadow_963_1065" result="shape"/>
</filter>
</defs>
</svg>
